<?xml version="1.0" encoding="UTF-8"?>
<!DOCTYPE svg PUBLIC "-//W3C//DTD SVG 1.1//EN" "http://www.w3.org/Graphics/SVG/1.1/DTD/svg11.dtd">
<svg version="1.1" xmlns="http://www.w3.org/2000/svg" xmlns:xlink="http://www.w3.org/1999/xlink" x="0" y="0" width="500" height="900" viewBox="0, 0, 500, 900">
  <style type="text/css">
	.fillpulse {
		animation: fillpulse 5s infinite;
	}
	
	@keyframes fillpulse {
		0%, 100% {
			fill: rgba(255,255,255,0.0);
      stroke: rgba(255,255,255,0.0);
		}
		50% {
			fill: #0074CC;
    	stroke: #0074CC;
		}
	}
</style>
  <g id="Layer_1">
    <g>
      <path d="M66.725,7.514 L434.275,7.514 C448.603,7.514 460.219,19.444 460.219,34.16 L460.219,866.84 C460.219,881.556 448.603,893.486 434.275,893.486 L66.725,893.486 C52.397,893.486 40.781,881.556 40.781,866.84 L40.781,34.16 C40.781,19.444 52.397,7.514 66.725,7.514 z" fill-opacity="0" stroke="#000000" stroke-width="8"/>
      <path d="M72.131,154.066 C67.951,154.066 64.563,149.58 64.563,144.046 C64.563,138.513 67.951,134.027 72.131,134.027 C76.31,134.027 79.698,138.513 79.698,144.046 C79.698,149.58 76.31,154.066 72.131,154.066 z" fill-opacity="0" stroke="#000000" stroke-width="8"/>
      <path d="M72.131,253.851 C67.951,253.851 64.563,249.365 64.563,243.832 C64.563,238.298 67.951,233.812 72.131,233.812 C76.31,233.812 79.698,238.298 79.698,243.832 C79.698,249.365 76.31,253.851 72.131,253.851 z" fill-opacity="0" stroke="#000000" stroke-width="8"/>
      <path d="M72.131,355.636 C67.951,355.636 64.563,351.15 64.563,345.616 C64.563,340.083 67.951,335.597 72.131,335.597 C76.31,335.597 79.698,340.083 79.698,345.616 C79.698,351.15 76.31,355.636 72.131,355.636 z" fill-opacity="0" stroke="#000000" stroke-width="8"/>
      <path d="M72.131,455.255 C67.951,455.255 64.563,450.769 64.563,445.235 C64.563,439.702 67.951,435.216 72.131,435.216 C76.31,435.216 79.698,439.702 79.698,445.235 C79.698,450.769 76.31,455.255 72.131,455.255 z" fill-opacity="0" stroke="#000000" stroke-width="8"/>
      <path d="M72.131,556.047 C67.951,556.047 64.563,551.561 64.563,546.028 C64.563,540.494 67.951,536.008 72.131,536.008 C76.31,536.008 79.698,540.494 79.698,546.028 C79.698,551.561 76.31,556.047 72.131,556.047 z" fill-opacity="0" stroke="#000000" stroke-width="8"/>
      <path d="M75.585,657.11 C71.406,657.11 68.018,652.624 68.018,647.09 C68.018,641.557 71.406,637.071 75.585,637.071 C79.764,637.071 83.152,641.557 83.152,647.09 C83.152,652.624 79.764,657.11 75.585,657.11 z" fill-opacity="0" stroke="#000000" stroke-width="8"/>
      <path d="M75.585,751.676 C71.406,751.676 68.018,747.19 68.018,741.656 C68.018,736.123 71.406,731.637 75.585,731.637 C79.764,731.637 83.152,736.123 83.152,741.656 C83.152,747.19 79.764,751.676 75.585,751.676 z" fill-opacity="0" stroke="#000000" stroke-width="8"/>
      <path d="M130.637,35.549 L409.28,35.549 C423.609,35.549 435.225,47.478 435.225,62.194 L435.225,804.761 C435.225,819.477 423.609,831.406 409.28,831.406 L130.637,831.406 C116.308,831.406 104.692,819.477 104.692,804.761 L104.692,62.194 C104.692,47.478 116.308,35.549 130.637,35.549 z" fill-opacity="0" stroke="#000000" stroke-width="8"/>
      <path d="M222.215,831.406 L323.211,831.406 L323.211,893.486 L222.215,893.486 L222.215,831.406 z" fill-opacity="0" stroke="#000000" stroke-width="8"/>
    </g>
    <path d="M124.219,454.135 L412.895,454.135" fill-opacity="0" stroke="#000000" stroke-width="1"/>
    <g>
      <g>
        <path class="fillpulse"  d="M248.139,294.079 C246.486,294.079 245.147,292.74 245.147,291.087 L245.147,211.394 C245.147,204.259 250.963,198.442 258.098,198.442 C265.232,198.442 271.049,204.259 271.049,211.394 L271.049,281.128 C271.049,282.781 269.71,284.12 268.057,284.12 C266.404,284.12 265.065,282.781 265.065,281.128 L265.065,211.394 C265.065,207.544 261.927,204.426 258.098,204.426 C254.248,204.426 251.131,207.565 251.131,211.394 L251.131,291.087 C251.131,292.74 249.792,294.079 248.139,294.079 z" fill="#000000"/>
        <path class="fillpulse" d="M287.975,284.12 C286.322,284.12 284.983,282.781 284.983,281.128 L284.983,241.292 C284.983,237.442 281.845,234.325 278.016,234.325 C274.166,234.325 271.049,237.463 271.049,241.292 L271.049,281.128 C271.049,282.781 269.71,284.12 268.057,284.12 C266.404,284.12 265.065,282.781 265.065,281.128 L265.065,241.292 C265.065,234.157 270.881,228.341 278.016,228.341 C285.151,228.341 290.967,234.157 290.967,241.292 L290.967,281.128 C290.967,282.781 289.628,284.12 287.975,284.12 z" fill="#000000"/>
        <path class="fillpulse" d="M307.893,284.12 C306.24,284.12 304.901,282.781 304.901,281.128 L304.901,251.251 C304.901,247.401 301.763,244.284 297.934,244.284 C294.085,244.284 290.967,247.422 290.967,251.251 L290.967,281.128 C290.967,282.781 289.628,284.12 287.975,284.12 C286.322,284.12 284.983,282.781 284.983,281.128 L284.983,251.251 C284.983,244.116 290.8,238.3 297.934,238.3 C305.069,238.3 310.885,244.116 310.885,251.251 L310.885,281.128 C310.885,282.781 309.546,284.12 307.893,284.12 z" fill="#000000"/>
        <path class="fillpulse" d="M287.975,363.647 C275.15,363.647 263.119,357.977 254.938,348.08 L210.185,290.271 C207.967,288.388 206.44,285.229 206.21,281.777 C206.001,278.325 207.151,274.998 209.432,272.404 C211.713,269.809 214.893,268.261 218.345,268.052 C221.776,267.863 225.124,268.972 227.718,271.274 L249.959,288.598 C251.256,289.623 251.486,291.485 250.482,292.782 C249.457,294.079 247.574,294.31 246.297,293.305 L223.91,275.877 C222.383,274.517 220.542,273.889 218.722,274.036 C216.859,274.14 215.165,274.977 213.93,276.379 C211.378,279.266 211.65,283.681 214.537,286.233 L259.625,344.398 C266.592,352.83 276.949,357.726 287.996,357.726 C308.312,357.726 324.862,341.197 324.862,320.86 L324.862,261.043 C324.862,257.193 321.723,254.075 317.894,254.075 C314.045,254.075 310.927,257.214 310.927,261.043 L310.927,280.961 C310.927,282.614 309.588,283.953 307.935,283.953 C306.282,283.953 304.943,282.614 304.943,280.961 L304.943,261.043 C304.943,253.908 310.76,248.092 317.894,248.092 C325.029,248.092 330.845,253.908 330.845,261.043 L330.845,320.818 C330.804,344.44 311.597,363.647 287.975,363.647 z" fill="#000000"/>
        <path class="fillpulse" d="M287.975,214.385 C286.322,214.385 284.983,213.046 284.983,211.394 C284.983,196.559 272.911,184.487 258.077,184.487 C243.243,184.487 231.17,196.559 231.17,211.394 C231.17,213.046 229.831,214.385 228.179,214.385 C226.526,214.385 225.187,213.046 225.187,211.394 C225.187,193.275 239.937,178.524 258.056,178.524 C276.175,178.524 290.925,193.275 290.925,211.394 C290.967,213.046 289.628,214.385 287.975,214.385 z" fill="#000000"/>
        <path class="fillpulse" d="M307.893,214.385 C306.24,214.385 304.901,213.046 304.901,211.394 C304.901,185.575 283.895,164.569 258.077,164.569 C232.258,164.569 211.252,185.575 211.252,211.394 C211.252,213.046 209.913,214.385 208.26,214.385 C206.607,214.385 205.268,213.046 205.268,211.394 C205.31,182.29 228.995,158.606 258.098,158.606 C287.201,158.606 310.885,182.29 310.885,211.394 C310.885,213.046 309.546,214.385 307.893,214.385 z" fill="#000000"/>
      </g>
      <g>
        <path class="fillpulse" d="M317.845,147.892 L317.845,114.292 L312.421,114.292 Q312.133,116.212 311.221,117.508 Q310.309,118.804 308.989,119.596 Q307.669,120.388 306.013,120.7 Q304.357,121.012 302.581,120.964 L302.581,126.1 L311.029,126.1 L311.029,147.892 z" fill="#000000"/>
        <path class="fillpulse" d="M317.845,147.892 L317.845,114.292 L312.421,114.292 Q312.133,116.212 311.221,117.508 Q310.309,118.804 308.989,119.596 Q307.669,120.388 306.013,120.7 Q304.357,121.012 302.581,120.964 L302.581,126.1 L311.029,126.1 L311.029,147.892 z" fill-opacity="0" stroke="#000000" stroke-width="1"/>
      </g>
      <g>
        <path class="fillpulse" d="M334.645,134.836 L325.717,147.892 L333.349,147.892 L338.533,140.068 L343.717,147.892 L351.493,147.892 L342.325,134.692 L350.485,123.076 L342.949,123.076 L338.629,129.556 L334.261,123.076 L326.485,123.076 z" fill="#000000"/>
        <path class="fillpulse" d="M334.645,134.836 L325.717,147.892 L333.349,147.892 L338.533,140.068 L343.717,147.892 L351.493,147.892 L342.325,134.692 L350.485,123.076 L342.949,123.076 L338.629,129.556 L334.261,123.076 L326.485,123.076 z" fill-opacity="0" stroke="#000000" stroke-width="1"/>
      </g>
      <path class="fillpulse" d="M325.261,170.613 C303.434,170.613 285.74,152.919 285.74,131.092 C285.74,109.265 303.434,91.571 325.261,91.571 C347.088,91.571 364.783,109.265 364.783,131.092 C364.783,152.919 347.088,170.613 325.261,170.613 z" fill-opacity="0" stroke="#000000" stroke-width="7"/>
    </g>
  </g>
</svg>
