<?xml version="1.0" encoding="UTF-8"?>
<!DOCTYPE svg PUBLIC "-//W3C//DTD SVG 1.1//EN" "http://www.w3.org/Graphics/SVG/1.1/DTD/svg11.dtd">
<svg version="1.1" xmlns="http://www.w3.org/2000/svg" xmlns:xlink="http://www.w3.org/1999/xlink" x="0" y="0" width="500" height="900" viewBox="0, 0, 500, 900">
  <g id="Layer_1">
    <g>
      <path d="M68.134,8.528 L435.683,8.528 C450.012,8.528 461.628,20.458 461.628,35.174 L461.628,867.854 C461.628,882.57 450.012,894.5 435.683,894.5 L68.134,894.5 C53.805,894.5 42.189,882.57 42.189,867.854 L42.189,35.174 C42.189,20.458 53.805,8.528 68.134,8.528 z" fill-opacity="0" stroke="#000000" stroke-width="8"/>
      <path d="M73.539,155.08 C69.36,155.08 65.972,150.594 65.972,145.06 C65.972,139.527 69.36,135.041 73.539,135.041 C77.718,135.041 81.106,139.527 81.106,145.06 C81.106,150.594 77.718,155.08 73.539,155.08 z" fill-opacity="0" stroke="#000000" stroke-width="8"/>
      <path d="M73.539,254.865 C69.36,254.865 65.972,250.38 65.972,244.846 C65.972,239.312 69.36,234.826 73.539,234.826 C77.718,234.826 81.106,239.312 81.106,244.846 C81.106,250.38 77.718,254.865 73.539,254.865 z" fill-opacity="0" stroke="#000000" stroke-width="8"/>
      <path d="M73.539,356.65 C69.36,356.65 65.972,352.164 65.972,346.63 C65.972,341.097 69.36,336.611 73.539,336.611 C77.718,336.611 81.106,341.097 81.106,346.63 C81.106,352.164 77.718,356.65 73.539,356.65 z" fill-opacity="0" stroke="#000000" stroke-width="8"/>
      <path d="M73.539,456.269 C69.36,456.269 65.972,451.783 65.972,446.249 C65.972,440.716 69.36,436.23 73.539,436.23 C77.718,436.23 81.106,440.716 81.106,446.249 C81.106,451.783 77.718,456.269 73.539,456.269 z" fill-opacity="0" stroke="#000000" stroke-width="8"/>
      <path d="M73.539,557.061 C69.36,557.061 65.972,552.575 65.972,547.042 C65.972,541.508 69.36,537.022 73.539,537.022 C77.718,537.022 81.106,541.508 81.106,547.042 C81.106,552.575 77.718,557.061 73.539,557.061 z" fill-opacity="0" stroke="#000000" stroke-width="8"/>
      <path d="M76.993,658.124 C72.814,658.124 69.426,653.638 69.426,648.104 C69.426,642.571 72.814,638.085 76.993,638.085 C81.173,638.085 84.561,642.571 84.561,648.104 C84.561,653.638 81.173,658.124 76.993,658.124 z" fill-opacity="0" stroke="#000000" stroke-width="8"/>
      <path d="M76.993,752.69 C72.814,752.69 69.426,748.204 69.426,742.67 C69.426,737.137 72.814,732.651 76.993,732.651 C81.173,732.651 84.561,737.137 84.561,742.67 C84.561,748.204 81.173,752.69 76.993,752.69 z" fill-opacity="0" stroke="#000000" stroke-width="8"/>
      <path d="M132.045,36.563 L410.689,36.563 C425.018,36.563 436.633,48.492 436.633,63.209 L436.633,805.775 C436.633,820.491 425.018,832.42 410.689,832.42 L132.045,832.42 C117.716,832.42 106.1,820.491 106.1,805.775 L106.1,63.209 C106.1,48.492 117.716,36.563 132.045,36.563 z" fill-opacity="0" stroke="#000000" stroke-width="8"/>
      <path d="M223.623,832.42 L324.619,832.42 L324.619,894.5 L223.623,894.5 L223.623,832.42 z" fill-opacity="0" stroke="#000000" stroke-width="8"/>
    </g>
  </g>
</svg>
